<?xml version="1.0" encoding="utf-8"?>
<!-- Generator: Adobe Illustrator 24.1.0, SVG Export Plug-In . SVG Version: 6.00 Build 0)  -->
<svg version="1.1" id="Layer_1" xmlns="http://www.w3.org/2000/svg" xmlns:xlink="http://www.w3.org/1999/xlink" x="0px" y="0px"
	 viewBox="0 0 747.1 648.6" style="enable-background:new 0 0 747.1 648.6;" xml:space="preserve">
<style type="text/css">
	.st0{opacity:0.66;}
	.st1{fill:#E6E6E6;}
	.st2{fill:#A0616A;}
	.st3{fill:#FFB9B9;}
	.st4{fill:#2F2E41;}
	.st5{fill:#1B3333;}
	.st6{fill:#2E151B;}
	.st7{opacity:0.1;enable-background:new    ;}
	.st8{fill:#376E70;}
	.st9{fill:#3F3D56;}
</style>
<g>
	<g id="Multiply" class="st0">
		
			<image style="overflow:visible;enable-background:new    ;" width="3415" height="3004" xlink:href="1791EAF73B243E76.png"  transform="matrix(0.24 0 0 0.24 -36.23 -36.19)">
		</image>
	</g>
	<g id="Overlay">
		<circle id="Ellipse_1-2" class="st1" cx="350.6" cy="99.5" r="82.4"/>
		<path id="Path_1-2" class="st1" d="M66.2,635l40.2-59.8l-40.2,66.3l0.1,6.7c-2.9,0-5.8,0-8.7-0.2l2-86.5v-0.7l0.1-0.1l0.2-8.2
			l-44.1-64l44,57.9L60,548l1.5-65.4l-38.1-66.2l38.2,54.8l-0.4-135.5l0,0l2.5,106.8l34.7-43.4l-34.6,52.6l0.8,58.5l31.9-57.1
			l-31.8,65.7l0.4,32.5l46.5-79.5l-46.3,90.9L66.2,635z"/>
		<path id="Path_2-2" class="st2" d="M154.9,262.4l-9,19.7l28.4,12.5c0,0,2.1-23.6,5.1-25.6L154.9,262.4z"/>
		<circle id="Ellipse_2-2" class="st3" cx="168.3" cy="257.7" r="21.1"/>
		<path id="Path_3-2" class="st4" d="M180,246.2c-2.6,0.2-5.1,0.6-7.6,1.2c-1.1,0.2-2.1,0.6-2.9,1.3c-1.4,1.2-1.7,3.1-2,4.9
			l-1.2,8.8c0,0.6-0.2,1.1-0.6,1.6c-0.5,0.4-1.1,0.7-1.8,0.8c-2.4,0.6-4.5,2-5.9,4c-2,2.7-2.7,6.3-5.3,8.4
			c-0.7-5.9-5.4-10.5-7.9-15.9c-1.6-3.4-2.2-7.2-1.9-11c0.1-1.4,0.4-2.7,0.8-4c1.3-3.9,4.3-7,8.1-8.6c1.8-0.7,3.9-1.1,5.5-2.1
			c0.9-0.6,1.7-1.4,2.6-1.9c2-1,4.1-1.5,6.3-1.3c4.6,0,9.1,0.7,13.5,2.1c2,0.6,4.1,1.5,5.1,3.3c1.2,2.2,0.7,4.9-1.1,6.6
			c-1.8,1.6-4.4,2.2-6.7,1.5"/>
		<path id="Path_4-2" class="st5" d="M146,264c0,0,25.6-25,45.2-11.6c0,0,2.1-19.3-10.8-23.6s-19.5-9.9-19.5-9.9l-12.7,3.5
			l-3.1,15.7C145.1,238.1,140.1,259.4,146,264z"/>
		<circle id="Ellipse_3-2" class="st5" cx="149.7" cy="212.8" r="11.8"/>
		<path id="Path_5-2" class="st5" d="M121,414.1c0,0,13.1,29.2,24.2,38.3l30.2,64.4l-16.7,102c0,0-14.4,26.2,26.1,8.4l34.4-118.9
			l-30.9-91.2L121,414.1z"/>
		<path id="Path_6-2" d="M158.7,618.6c0,0-19.5,26.8-0.9,28.6s29.8,1,36.5,1c6.4-0.1,19.4,0,17.4-10.2s-25.2-11.8-25.2-11.8
			L158.7,618.6z"/>
		<path id="Path_7-2" d="M66.8,584.7c0,0-25.9,20.7-8.4,27.3s28.5,8.8,35,10.5c6.2,1.6,18.7,5.1,19.5-5.2s-21.2-18-21.2-18
			L66.8,584.7z"/>
		<path id="Path_8-2" class="st5" d="M115.9,378.2c0,0,0.4,32,7,44.7l2.2,71.1l-59.7,90.1c0,0-13.9,18.8,30.3,18.5l73-99.1l7.8-95.9
			L115.9,378.2z"/>
		<path id="Path_9-2" class="st6" d="M199.2,429.4c-0.4,8.1-0.9,13.9-1.1,15c-0.3,1.6-8.5,3-19.9,3.3c-17.3,0.6-42.3-1-59.2-7
			c-3.3-1.1-5.8-4.1-7.8-8.1c-5.8-12.1-6.1-34-5.1-46.6c0.5-6,1.4-11.9,2.6-17.8c0.8-3.8,1.6-7.3,2.3-10.2c1.5-5.8,2.7-9.4,2.7-9.4
			l0.1-8.4l0.2-10.1l0.3-17.7V311c-14.2-10.5,5.2-43.6,5.8-46.9s20.2,6.6,20.2,6.6l5.3-5l12.4,6.8l15.9-5l10,21.2
			c0,0,3.4,8.5,7,20.9c1.5,5.2,3.1,11.2,4.5,17.5c0.7,3.3,1.4,6.6,1.9,10c0.8,4.5,1.4,9.1,1.8,13.7c0.1,1.3,0.2,2.6,0.3,3.9
			c0.2,3.3,0.4,6.7,0.6,10.1c0.3,5.8,0.4,11.8,0.5,17.7C200.7,396.6,200,416.1,199.2,429.4z"/>
		<path id="Path_10-2" class="st1" d="M111.1,358.1c1.5-5.8,2.7-9.4,2.7-9.4l0.1-8.4l83.5-3.1c0.8,4.5,1.4,9.1,1.8,13.7
			c0.1,1.3,0.2,2.6,0.3,3.9L111.1,358.1z"/>
		<path id="Path_11-2" class="st1" d="M200.6,382.6l-94.4,3.5c0.5-6,1.4-11.9,2.6-17.8l91.3-3.4
			C200.3,370.8,200.5,376.8,200.6,382.6z"/>
		<path id="Path_12-2" class="st1" d="M199.2,429.4c-0.4,8.1-0.9,13.9-1.1,15c-0.3,1.6-8.5,3-19.9,3.3c-17.3,0.6-42.3-1-59.2-7
			c-3.3-1.1-5.8-4.1-7.8-8.1L199.2,429.4z"/>
		<path id="Path_13-2" class="st3" d="M209.7,393.4c0,0,17.7,1.8,11.8,14.3s-24.1,0.4-24.1,0.4L209.7,393.4z"/>
		<path id="Path_14-2" class="st6" d="M217.6,392.4l-15.5,21.8l-9.4-5.8l-5.7-3.6l-3.3-2l-5.7-3.6l-3.2-2l-5.7-3.6
			c-13.9-8.8-27.5-17.7-30.2-20.2c-4-3.7-12.9-31-18.2-47.8c-3.6-11.2-1.7-23.5,5.2-33.2c6.7-9.2,13.9-10,19.8-8.1
			c8.1,2.8,13.3,10.5,13,19l-1.3,41.9l30.5,23.9l5.3,4.1l3,2.4l5.3,4.1l3,2.4l5.3,4.1L217.6,392.4z"/>
		<path id="Path_15-2" class="st7" d="M118.7,302.4c0,0,15.8-32.1,36-21.2C154.6,281.2,133,277.8,118.7,302.4z"/>
		<path id="Path_16-2" class="st1" d="M201.5,379.8l-17.7,23c-1.9-1.1-3.8-2.4-5.7-3.6l18.1-23.6L201.5,379.8z"/>
		<path id="Path_17-2" class="st1" d="M209.8,386.2l-17,22.1l-5.7-3.6l17.4-22.8L209.8,386.2z"/>
		<path id="Path_18-2" class="st1" d="M300.4,628.3l56.8-84.5l-56.7,93.5l0.1,9.5c-4.1,0-8.2-0.1-12.3-0.2l2.8-122.2l-0.1-0.9
			l0.1-0.2l0.3-11.5l-62.2-90.3l62.1,81.7l0.2,2.4l2.1-92.3L240,319.7l53.9,77.4l-0.6-191.2v-0.6v0.6l3.6,150.7l49-61.2l-48.8,74.2
			l1.1,82.5l45-80.6l-44.9,92.7l0.6,45.9L364.4,398l-65.3,128.2L300.4,628.3z"/>
		<path id="Path_19-2" class="st1" d="M680.4,635l40.2-59.8l-40.2,66.3l0.1,6.7c-2.9,0-5.8,0-8.7-0.2l2-86.5l-0.1-0.7l0.1-0.1
			l0.2-8.2l-44.1-64l44,57.9l0.2,1.7l1.5-65.4l-38.1-66.2l38.2,54.9l-0.4-135.5l0,0l2.5,106.8l34.7-43.4L678,451.7l0.8,58.5
			l31.9-57.1l-31.8,65.7l0.4,32.5l46.4-79.5l-46.3,90.9L680.4,635z"/>
		<path id="Path_20-2" class="st1" d="M524.7,635l40.2-59.8l-40.1,66.3l0.1,6.7c-2.9,0-5.8,0-8.7-0.2l2-86.5l0-0.7l0.1-0.1l0.2-8.2
			l-44.1-64l44,57.9l0.2,1.7l1.5-65.4l-38-66.2l38.2,54.9l-0.4-135.5l0,0l2.5,106.8l34.7-43.4l-34.6,52.6l0.8,58.5l31.9-57.1
			l-31.8,65.7l0.4,32.5l46.4-79.5l-46.3,90.9L524.7,635z"/>
		<path id="Path_21-2" class="st8" d="M414.9,620.8l83.3-123.9l-83.2,137.3l0.2,13.9c-6.1,0-12.1-0.1-18.1-0.3l4.1-179.3l-0.1-1.4
			l0.1-0.3l0.4-16.9l-91.3-132.5l91.2,119.8l0.3,3.6l3.1-135.4L326.3,168l79.1,113.6L404.5,0.9V0v0.9l5.2,221.2l71.8-89.8L410,241.1
			l1.6,121.2l66.1-118.2l-65.9,136l0.9,67.4l96.2-164.7L413,471L414.9,620.8z"/>
		<path id="Path_22-2" class="st8" d="M618.1,626.1l-64.9-96.5L618,636.5l-0.1,10.8c4.7,0,9.4,0,14.1-0.2l-3.2-139.6l0.1-1.1
			l-0.1-0.2l-0.3-13.2l71.1-103.2l-71,93.4l-0.2,2.8l-2.4-105.5l61.4-107l-61.6,88.5l0.7-218.5v-0.7v0.7l-4.1,172.3l-56-70
			l55.8,84.8l-1.2,94.4l-51.5-92.1l51.3,106l-0.7,52.5L545,362.9l74.7,146.6L618.1,626.1z"/>
		<rect id="Rectangle_2-2" y="646.7" class="st9" width="747.1" height="1.9"/>
	</g>
</g>
</svg>
